<svg width="25" height="25" viewBox="0 0 25 25" fill="none" xmlns="http://www.w3.org/2000/svg">
<path d="M12.4994 14.5833C14.2253 14.5833 15.6244 13.1841 15.6244 11.4583C15.6244 9.73236 14.2253 8.33325 12.4994 8.33325C10.7735 8.33325 9.37439 9.73236 9.37439 11.4583C9.37439 13.1841 10.7735 14.5833 12.4994 14.5833Z" stroke="#303841" stroke-width="2" stroke-linecap="round" stroke-linejoin="round"/>
<path d="M18.3927 17.351L13.9729 21.7708C13.5822 22.161 13.0527 22.3802 12.5005 22.3802C11.9483 22.3802 11.4187 22.161 11.0281 21.7708L6.60725 17.351C5.44186 16.1855 4.64823 14.7007 4.32672 13.0842C4.00521 11.4677 4.17027 9.79214 4.80101 8.26945C5.43175 6.74676 6.49986 5.44529 7.87026 4.52963C9.24066 3.61397 10.8518 3.12524 12.5 3.12524C14.1481 3.12524 15.7593 3.61397 17.1297 4.52963C18.5001 5.44529 19.5682 6.74676 20.1989 8.26945C20.8297 9.79214 20.9947 11.4677 20.6732 13.0842C20.3517 14.7007 19.5581 16.1855 18.3927 17.351Z" stroke="#303841" stroke-width="2" stroke-linecap="round" stroke-linejoin="round"/>
</svg>
