<svg width="27" height="27" viewBox="0 0 27 27" fill="none" xmlns="http://www.w3.org/2000/svg">
<path d="M17.9999 4.5H8.99988C6.5146 4.5 4.49988 6.51472 4.49988 9V18C4.49988 20.4853 6.5146 22.5 8.99988 22.5H17.9999C20.4852 22.5 22.4999 20.4853 22.4999 18V9C22.4999 6.51472 20.4852 4.5 17.9999 4.5Z" stroke="#303841" stroke-width="2" stroke-linecap="round" stroke-linejoin="round"/>
<path d="M13.4995 16.875C15.3635 16.875 16.8745 15.364 16.8745 13.5C16.8745 11.636 15.3635 10.125 13.4995 10.125C11.6356 10.125 10.1245 11.636 10.1245 13.5C10.1245 15.364 11.6356 16.875 13.4995 16.875Z" stroke="#303841" stroke-width="2" stroke-linecap="round" stroke-linejoin="round"/>
<path d="M18.5626 8.4375V8.44023" stroke="#303841" stroke-width="2" stroke-linecap="round" stroke-linejoin="round"/>
</svg>
